<mxfile host="65bd71144e">
    <diagram id="DYNpHGhloW08hcf4pjvI" name="Страница 1">
        <mxGraphModel dx="1870" dy="1580" grid="1" gridSize="10" guides="1" tooltips="1" connect="1" arrows="1" fold="1" page="1" pageScale="1" pageWidth="827" pageHeight="1169" math="0" shadow="0">
            <root>
                <mxCell id="0"/>
                <mxCell id="1" parent="0"/>
                <mxCell id="12" value="" style="edgeStyle=orthogonalEdgeStyle;rounded=0;orthogonalLoop=1;jettySize=auto;html=1;entryX=0;entryY=0.5;entryDx=0;entryDy=0;" parent="1" edge="1">
                    <mxGeometry relative="1" as="geometry">
                        <mxPoint x="160" y="360" as="targetPoint"/>
                        <Array as="points">
                            <mxPoint x="80" y="840"/>
                            <mxPoint x="80" y="360"/>
                        </Array>
                    </mxGeometry>
                </mxCell>
                <mxCell id="75" value="" style="endArrow=classic;html=1;rounded=0;fontFamily=Times New Roman;entryX=0;entryY=0.5;entryDx=0;entryDy=0;exitX=0;exitY=0.5;exitDx=0;exitDy=0;" parent="1" target="70" edge="1">
                    <mxGeometry width="50" height="50" relative="1" as="geometry">
                        <mxPoint x="320" y="1120" as="sourcePoint"/>
                        <mxPoint x="239.99999999999955" y="1050" as="targetPoint"/>
                        <Array as="points">
                            <mxPoint x="240" y="1120"/>
                            <mxPoint x="240" y="640"/>
                        </Array>
                    </mxGeometry>
                </mxCell>
                <mxCell id="82" value="&lt;font style=&quot;font-size: 14px;&quot;&gt;Start&lt;/font&gt;" style="strokeWidth=2;html=1;shape=mxgraph.flowchart.terminator;whiteSpace=wrap;" vertex="1" parent="1">
                    <mxGeometry x="520" y="240" width="240" height="80" as="geometry"/>
                </mxCell>
                <mxCell id="83" value="&lt;span style=&quot;color: rgb(44, 45, 48); font-size: 15px; text-align: left;&quot;&gt;Блок-схема алгоритма&amp;nbsp;&lt;/span&gt;&lt;span style=&quot;color: rgb(44, 45, 48); font-size: 15px; text-align: start;&quot;&gt;формирования&amp;nbsp;&lt;/span&gt;&lt;span style=&quot;color: rgb(44, 45, 48); font-size: 15px; text-align: start;&quot;&gt;из имеющегося массива строк&lt;/span&gt;&lt;span style=&quot;color: rgb(44, 45, 48); font-size: 15px; text-align: start;&quot;&gt;&lt;br&gt;&amp;nbsp;нового массива из строк, длина которых меньше, либо равна 3 символам&lt;/span&gt;" style="text;html=1;align=center;verticalAlign=middle;resizable=0;points=[];autosize=1;fontSize=14;fontFamily=Times New Roman;fontStyle=1;fillColor=#FFFFFF;" vertex="1" parent="1">
                    <mxGeometry x="440" y="40" width="520" height="40" as="geometry"/>
                </mxCell>
                <mxCell id="84" value="&lt;font style=&quot;font-size: 14px;&quot;&gt;Ввод исходных данных&lt;br&gt;&lt;/font&gt;" style="shape=parallelogram;perimeter=parallelogramPerimeter;whiteSpace=wrap;html=1;fixedSize=1;strokeWidth=2;" vertex="1" parent="1">
                    <mxGeometry x="520" y="401" width="240" height="80" as="geometry"/>
                </mxCell>
                <mxCell id="85" value="&lt;font style=&quot;font-size: 14px;&quot;&gt;Формирование массива элементов, выполняющих условие&lt;br&gt;&lt;/font&gt;" style="whiteSpace=wrap;html=1;strokeWidth=2;" vertex="1" parent="1">
                    <mxGeometry x="520" y="560" width="240" height="80" as="geometry"/>
                </mxCell>
                <mxCell id="86" value="" style="edgeStyle=orthogonalEdgeStyle;rounded=0;orthogonalLoop=1;jettySize=auto;html=1;fontSize=14;entryX=0.5;entryY=0;entryDx=0;entryDy=0;entryPerimeter=0;" edge="1" parent="1" source="87" target="88">
                    <mxGeometry relative="1" as="geometry">
                        <mxPoint x="900" y="1111" as="targetPoint"/>
                    </mxGeometry>
                </mxCell>
                <mxCell id="87" value="&lt;span style=&quot;font-size: 14px;&quot;&gt;Вывод результатов&lt;/span&gt;" style="shape=document;whiteSpace=wrap;html=1;boundedLbl=1;strokeWidth=2;" vertex="1" parent="1">
                    <mxGeometry x="520" y="720" width="240" height="85" as="geometry"/>
                </mxCell>
                <mxCell id="88" value="&lt;font style=&quot;font-size: 14px;&quot;&gt;End&lt;/font&gt;" style="strokeWidth=2;html=1;shape=mxgraph.flowchart.terminator;whiteSpace=wrap;" vertex="1" parent="1">
                    <mxGeometry x="520" y="880" width="240" height="80" as="geometry"/>
                </mxCell>
                <mxCell id="89" value="" style="endArrow=classic;html=1;rounded=0;fontFamily=Times New Roman;exitX=0.5;exitY=1;exitDx=0;exitDy=0;" edge="1" parent="1">
                    <mxGeometry width="50" height="50" relative="1" as="geometry">
                        <mxPoint x="640.0699999999997" y="320" as="sourcePoint"/>
                        <mxPoint x="639.6999999999998" y="400" as="targetPoint"/>
                        <Array as="points">
                            <mxPoint x="639.7" y="400"/>
                        </Array>
                    </mxGeometry>
                </mxCell>
                <mxCell id="90" value="" style="endArrow=classic;html=1;rounded=0;fontFamily=Times New Roman;exitX=0.5;exitY=1;exitDx=0;exitDy=0;" edge="1" parent="1">
                    <mxGeometry width="50" height="50" relative="1" as="geometry">
                        <mxPoint x="640.0699999999997" y="481.00000000000045" as="sourcePoint"/>
                        <mxPoint x="639.6999999999998" y="561.0000000000005" as="targetPoint"/>
                        <Array as="points">
                            <mxPoint x="639.7" y="561"/>
                        </Array>
                    </mxGeometry>
                </mxCell>
                <mxCell id="91" value="&lt;font style=&quot;font-size: 14px;&quot;&gt;Ввод элементов string&lt;br&gt;с помощью клвиатуры&lt;br&gt;&lt;/font&gt;" style="shape=parallelogram;perimeter=parallelogramPerimeter;whiteSpace=wrap;html=1;fixedSize=1;strokeWidth=2;" vertex="1" parent="1">
                    <mxGeometry x="198" y="1199" width="240" height="80" as="geometry"/>
                </mxCell>
                <mxCell id="92" value="No" style="text;html=1;align=center;verticalAlign=middle;resizable=0;points=[];autosize=1;strokeColor=none;fillColor=none;fontSize=14;" vertex="1" parent="1">
                    <mxGeometry x="438" y="1860" width="30" height="20" as="geometry"/>
                </mxCell>
                <mxCell id="93" value="Yes" style="edgeLabel;html=1;align=center;verticalAlign=middle;resizable=0;points=[];fontSize=14;" vertex="1" connectable="0" parent="1">
                    <mxGeometry x="438" y="2160.0018518518523" as="geometry">
                        <mxPoint x="-142" y="-381" as="offset"/>
                    </mxGeometry>
                </mxCell>
                <mxCell id="94" value="No" style="text;html=1;align=center;verticalAlign=middle;resizable=0;points=[];autosize=1;strokeColor=none;fillColor=none;fontSize=14;" vertex="1" parent="1">
                    <mxGeometry x="468" y="1520" width="30" height="20" as="geometry"/>
                </mxCell>
                <mxCell id="95" value="" style="endArrow=classic;html=1;rounded=0;fontFamily=Times New Roman;exitX=0.5;exitY=1;exitDx=0;exitDy=0;" edge="1" parent="1">
                    <mxGeometry width="50" height="50" relative="1" as="geometry">
                        <mxPoint x="317.97000000000025" y="1279.0000000000005" as="sourcePoint"/>
                        <mxPoint x="317.60000000000036" y="1359.0000000000005" as="targetPoint"/>
                        <Array as="points">
                            <mxPoint x="317.6" y="1359"/>
                        </Array>
                    </mxGeometry>
                </mxCell>
                <mxCell id="96" value="" style="endArrow=classic;html=1;rounded=0;fontFamily=Times New Roman;exitX=0.5;exitY=1;exitDx=0;exitDy=0;" edge="1" parent="1">
                    <mxGeometry width="50" height="50" relative="1" as="geometry">
                        <mxPoint x="318.09000000000015" y="1600" as="sourcePoint"/>
                        <mxPoint x="317.71999999999935" y="1680" as="targetPoint"/>
                        <Array as="points">
                            <mxPoint x="317.72" y="1680"/>
                        </Array>
                    </mxGeometry>
                </mxCell>
                <mxCell id="97" value="&lt;span style=&quot;color: rgb(44, 45, 48); font-size: 15px; text-align: left;&quot;&gt;1. Структура алгоритма&lt;/span&gt;" style="text;html=1;align=center;verticalAlign=middle;resizable=0;points=[];autosize=1;fontSize=14;fontFamily=Times New Roman;fontStyle=1;fillColor=#FFFFFF;" vertex="1" parent="1">
                    <mxGeometry x="610" y="130" width="180" height="20" as="geometry"/>
                </mxCell>
                <mxCell id="98" value="" style="endArrow=classic;html=1;rounded=0;fontFamily=Times New Roman;entryX=1;entryY=0.5;entryDx=0;entryDy=0;entryPerimeter=0;" edge="1" parent="1" target="88">
                    <mxGeometry width="50" height="50" relative="1" as="geometry">
                        <mxPoint x="640" y="520.98" as="sourcePoint"/>
                        <mxPoint x="800" y="960" as="targetPoint"/>
                        <Array as="points">
                            <mxPoint x="840" y="520"/>
                            <mxPoint x="840" y="840"/>
                            <mxPoint x="840" y="920"/>
                        </Array>
                    </mxGeometry>
                </mxCell>
                <mxCell id="99" value="" style="endArrow=none;html=1;rounded=0;" edge="1" parent="1">
                    <mxGeometry width="50" height="50" relative="1" as="geometry">
                        <mxPoint x="320" y="500" as="sourcePoint"/>
                        <mxPoint x="320" y="390" as="targetPoint"/>
                        <Array as="points">
                            <mxPoint x="280" y="500"/>
                            <mxPoint x="280" y="390"/>
                        </Array>
                    </mxGeometry>
                </mxCell>
                <mxCell id="100" value="" style="endArrow=none;html=1;rounded=0;" edge="1" parent="1">
                    <mxGeometry width="50" height="50" relative="1" as="geometry">
                        <mxPoint x="320" y="660" as="sourcePoint"/>
                        <mxPoint x="320" y="540" as="targetPoint"/>
                        <Array as="points">
                            <mxPoint x="280" y="660"/>
                            <mxPoint x="280" y="540"/>
                        </Array>
                    </mxGeometry>
                </mxCell>
                <mxCell id="101" value="&lt;font style=&quot;&quot;&gt;&lt;span style=&quot;font-size: 14px;&quot;&gt;БЛОК ВЫВОДА ДАННЫХ&lt;br&gt;&lt;/span&gt;&lt;/font&gt;" style="text;html=1;align=left;verticalAlign=middle;resizable=0;points=[];autosize=1;strokeColor=none;fillColor=none;strokeWidth=2;" vertex="1" parent="1">
                    <mxGeometry x="60" y="760" width="180" height="20" as="geometry"/>
                </mxCell>
                <mxCell id="102" value="&lt;font style=&quot;&quot;&gt;&lt;span style=&quot;font-size: 14px;&quot;&gt;БЛОК ОПРЕДЕЛЕНИЯ ДЛИНЫ&lt;br&gt;ЭЛЕМЕНТА И ФРМИРОВАНИЯ&lt;br&gt;НОВОГО МАССИВА&lt;br&gt;&lt;/span&gt;&lt;/font&gt;" style="text;html=1;align=left;verticalAlign=middle;resizable=0;points=[];autosize=1;strokeColor=none;fillColor=none;strokeWidth=2;" vertex="1" parent="1">
                    <mxGeometry x="20" y="570" width="220" height="50" as="geometry"/>
                </mxCell>
                <mxCell id="103" value="&lt;font style=&quot;&quot;&gt;&lt;span style=&quot;font-size: 14px;&quot;&gt;БЛОК ВВОДА ИСХОДНЫХ&lt;br&gt;ДАННЫХ&lt;br&gt;&lt;/span&gt;&lt;/font&gt;" style="text;html=1;align=left;verticalAlign=middle;resizable=0;points=[];autosize=1;strokeColor=none;fillColor=none;strokeWidth=2;" vertex="1" parent="1">
                    <mxGeometry x="50" y="421" width="190" height="40" as="geometry"/>
                </mxCell>
                <mxCell id="104" value="&lt;font style=&quot;&quot;&gt;&lt;span style=&quot;font-size: 14px;&quot;&gt;&lt;b&gt;Блок вывода данных&lt;br&gt;не рассматривается&lt;br&gt;в связи с его простотой&lt;/b&gt;&lt;br&gt;&lt;/span&gt;&lt;/font&gt;" style="text;html=1;align=center;verticalAlign=middle;resizable=0;points=[];autosize=1;strokeColor=none;fillColor=none;strokeWidth=2;" vertex="1" parent="1">
                    <mxGeometry x="550" y="1000" width="180" height="50" as="geometry"/>
                </mxCell>
                <mxCell id="105" value="&lt;span style=&quot;color: rgb(44, 45, 48); font-size: 15px; text-align: left;&quot;&gt;2. Блок ввода исходных данных&lt;/span&gt;" style="text;html=1;align=center;verticalAlign=middle;resizable=0;points=[];autosize=1;fontSize=14;fontFamily=Times New Roman;fontStyle=1;fillColor=#FFFFFF;" vertex="1" parent="1">
                    <mxGeometry x="210" y="1149" width="230" height="20" as="geometry"/>
                </mxCell>
                <mxCell id="106" value="&lt;font style=&quot;font-size: 14px;&quot;&gt;string != &quot; &quot;&lt;/font&gt;" style="rhombus;whiteSpace=wrap;html=1;strokeWidth=2;" vertex="1" parent="1">
                    <mxGeometry x="198" y="1520" width="240" height="80" as="geometry"/>
                </mxCell>
                <mxCell id="107" value="" style="endArrow=classic;html=1;rounded=0;fontFamily=Times New Roman;exitX=0.5;exitY=1;exitDx=0;exitDy=0;" edge="1" parent="1">
                    <mxGeometry width="50" height="50" relative="1" as="geometry">
                        <mxPoint x="639.8400000000001" y="640" as="sourcePoint"/>
                        <mxPoint x="639.4699999999993" y="720" as="targetPoint"/>
                        <Array as="points">
                            <mxPoint x="639.47" y="720"/>
                        </Array>
                    </mxGeometry>
                </mxCell>
                <mxCell id="108" value="" style="endArrow=none;html=1;rounded=0;" edge="1" parent="1">
                    <mxGeometry width="50" height="50" relative="1" as="geometry">
                        <mxPoint x="320" y="822.5" as="sourcePoint"/>
                        <mxPoint x="320" y="702.5" as="targetPoint"/>
                        <Array as="points">
                            <mxPoint x="280" y="822.5"/>
                            <mxPoint x="280" y="702.5"/>
                        </Array>
                    </mxGeometry>
                </mxCell>
                <mxCell id="109" value="&lt;font style=&quot;font-size: 14px;&quot;&gt;Назначение переменных&lt;br&gt;string array[count]&lt;br&gt;string temp[count]&lt;br&gt;int count = 0&lt;br&gt;&lt;/font&gt;" style="whiteSpace=wrap;html=1;strokeWidth=2;" vertex="1" parent="1">
                    <mxGeometry x="198" y="1360" width="240" height="80" as="geometry"/>
                </mxCell>
                <mxCell id="110" value="" style="endArrow=classic;html=1;rounded=0;fontFamily=Times New Roman;exitX=0.5;exitY=1;exitDx=0;exitDy=0;" edge="1" parent="1">
                    <mxGeometry width="50" height="50" relative="1" as="geometry">
                        <mxPoint x="318.03999999999996" y="1440" as="sourcePoint"/>
                        <mxPoint x="317.6700000000001" y="1520" as="targetPoint"/>
                        <Array as="points">
                            <mxPoint x="317.67" y="1520"/>
                        </Array>
                    </mxGeometry>
                </mxCell>
                <mxCell id="111" value="&lt;font style=&quot;font-size: 14px;&quot;&gt;count++&lt;br&gt;i = 0&lt;br&gt;&lt;/font&gt;" style="whiteSpace=wrap;html=1;strokeWidth=2;" vertex="1" parent="1">
                    <mxGeometry x="198" y="1680" width="240" height="80" as="geometry"/>
                </mxCell>
                <mxCell id="112" value="&lt;font style=&quot;font-size: 14px;&quot;&gt;temp[i] = array[i]&lt;br&gt;&lt;/font&gt;" style="whiteSpace=wrap;html=1;strokeWidth=2;" vertex="1" parent="1">
                    <mxGeometry x="198" y="2000" width="240" height="80" as="geometry"/>
                </mxCell>
                <mxCell id="113" value="" style="endArrow=classic;html=1;rounded=0;fontFamily=Times New Roman;exitX=0.5;exitY=1;exitDx=0;exitDy=0;" edge="1" parent="1">
                    <mxGeometry width="50" height="50" relative="1" as="geometry">
                        <mxPoint x="318.09000000000015" y="1760" as="sourcePoint"/>
                        <mxPoint x="317.71999999999935" y="1840" as="targetPoint"/>
                        <Array as="points">
                            <mxPoint x="317.72" y="1840"/>
                        </Array>
                    </mxGeometry>
                </mxCell>
                <mxCell id="114" value="&lt;font style=&quot;font-size: 14px;&quot;&gt;i++&lt;br&gt;&lt;/font&gt;" style="whiteSpace=wrap;html=1;strokeWidth=2;" vertex="1" parent="1">
                    <mxGeometry x="198" y="2160" width="240" height="80" as="geometry"/>
                </mxCell>
                <mxCell id="115" value="" style="endArrow=classic;html=1;rounded=0;fontFamily=Times New Roman;exitX=0.5;exitY=1;exitDx=0;exitDy=0;" edge="1" parent="1">
                    <mxGeometry width="50" height="50" relative="1" as="geometry">
                        <mxPoint x="318.09000000000015" y="2080" as="sourcePoint"/>
                        <mxPoint x="317.71999999999935" y="2160" as="targetPoint"/>
                        <Array as="points">
                            <mxPoint x="317.72" y="2160"/>
                        </Array>
                    </mxGeometry>
                </mxCell>
                <mxCell id="116" value="&lt;font style=&quot;font-size: 14px;&quot;&gt;i &amp;lt; temp.Length - 1&lt;/font&gt;" style="rhombus;whiteSpace=wrap;html=1;strokeWidth=2;" vertex="1" parent="1">
                    <mxGeometry x="198" y="1840" width="240" height="80" as="geometry"/>
                </mxCell>
                <mxCell id="117" value="" style="endArrow=classic;html=1;rounded=0;fontFamily=Times New Roman;exitX=0.5;exitY=1;exitDx=0;exitDy=0;" edge="1" parent="1">
                    <mxGeometry width="50" height="50" relative="1" as="geometry">
                        <mxPoint x="318.09000000000015" y="1920" as="sourcePoint"/>
                        <mxPoint x="317.71999999999935" y="2000" as="targetPoint"/>
                        <Array as="points">
                            <mxPoint x="317.72" y="2000"/>
                        </Array>
                    </mxGeometry>
                </mxCell>
                <mxCell id="118" value="Yes" style="edgeLabel;html=1;align=center;verticalAlign=middle;resizable=0;points=[];fontSize=14;" vertex="1" connectable="0" parent="1">
                    <mxGeometry x="438" y="2310.0018518518523" as="geometry">
                        <mxPoint x="-142" y="-381" as="offset"/>
                    </mxGeometry>
                </mxCell>
                <mxCell id="119" value="" style="endArrow=classic;html=1;rounded=0;fontFamily=Times New Roman;entryX=0;entryY=0.5;entryDx=0;entryDy=0;exitX=0;exitY=0.5;exitDx=0;exitDy=0;" edge="1" parent="1" source="114">
                    <mxGeometry width="50" height="50" relative="1" as="geometry">
                        <mxPoint x="198" y="2360" as="sourcePoint"/>
                        <mxPoint x="198" y="1880" as="targetPoint"/>
                        <Array as="points">
                            <mxPoint x="118" y="2200"/>
                            <mxPoint x="118" y="1880"/>
                        </Array>
                    </mxGeometry>
                </mxCell>
                <mxCell id="120" value="&lt;font style=&quot;font-size: 14px;&quot;&gt;temp[count - 1] = string&lt;br&gt;array = temp&lt;br&gt;&lt;/font&gt;" style="whiteSpace=wrap;html=1;strokeWidth=2;" vertex="1" parent="1">
                    <mxGeometry x="518" y="1840" width="240" height="80" as="geometry"/>
                </mxCell>
                <mxCell id="121" value="" style="endArrow=classic;html=1;rounded=0;fontFamily=Times New Roman;entryX=0;entryY=0.5;entryDx=0;entryDy=0;" edge="1" parent="1">
                    <mxGeometry width="50" height="50" relative="1" as="geometry">
                        <mxPoint x="438" y="1879.4400000000005" as="sourcePoint"/>
                        <mxPoint x="518" y="1879.4400000000005" as="targetPoint"/>
                        <Array as="points">
                            <mxPoint x="478" y="1879.44"/>
                        </Array>
                    </mxGeometry>
                </mxCell>
                <mxCell id="122" value="Yes" style="edgeLabel;html=1;align=center;verticalAlign=middle;resizable=0;points=[];fontSize=14;" vertex="1" connectable="0" parent="1">
                    <mxGeometry x="438" y="1990.0018518518523" as="geometry">
                        <mxPoint x="-142" y="-381" as="offset"/>
                    </mxGeometry>
                </mxCell>
                <mxCell id="123" value="" style="endArrow=classic;html=1;rounded=0;fontFamily=Times New Roman;entryX=0;entryY=0.5;entryDx=0;entryDy=0;" edge="1" parent="1">
                    <mxGeometry width="50" height="50" relative="1" as="geometry">
                        <mxPoint x="438" y="1559.44" as="sourcePoint"/>
                        <mxPoint x="518" y="1559.44" as="targetPoint"/>
                        <Array as="points">
                            <mxPoint x="478" y="1559.44"/>
                        </Array>
                    </mxGeometry>
                </mxCell>
                <mxCell id="124" value="" style="endArrow=classic;html=1;rounded=0;fontFamily=Times New Roman;entryX=0;entryY=0.5;entryDx=0;entryDy=0;exitX=0.5;exitY=1;exitDx=0;exitDy=0;" edge="1" parent="1" source="120">
                    <mxGeometry width="50" height="50" relative="1" as="geometry">
                        <mxPoint x="198" y="1880" as="sourcePoint"/>
                        <mxPoint x="198" y="1560" as="targetPoint"/>
                        <Array as="points">
                            <mxPoint x="638" y="2320"/>
                            <mxPoint x="340" y="2320"/>
                            <mxPoint x="40" y="2320"/>
                            <mxPoint x="40" y="1560"/>
                        </Array>
                    </mxGeometry>
                </mxCell>
                <mxCell id="125" value="&lt;span style=&quot;font-size: 14px;&quot;&gt;print(array[ ])&lt;/span&gt;" style="shape=document;whiteSpace=wrap;html=1;boundedLbl=1;strokeWidth=2;" vertex="1" parent="1">
                    <mxGeometry x="518" y="1520" width="240" height="85" as="geometry"/>
                </mxCell>
                <mxCell id="126" value="No" style="text;html=1;align=center;verticalAlign=middle;resizable=0;points=[];autosize=1;strokeColor=none;fillColor=none;fontSize=14;" vertex="1" parent="1">
                    <mxGeometry x="1280" y="1700" width="30" height="20" as="geometry"/>
                </mxCell>
                <mxCell id="127" value="No" style="text;html=1;align=center;verticalAlign=middle;resizable=0;points=[];autosize=1;strokeColor=none;fillColor=none;fontSize=14;" vertex="1" parent="1">
                    <mxGeometry x="1310" y="1361" width="30" height="20" as="geometry"/>
                </mxCell>
                <mxCell id="128" value="" style="endArrow=classic;html=1;rounded=0;fontFamily=Times New Roman;exitX=0.5;exitY=1;exitDx=0;exitDy=0;" edge="1" parent="1">
                    <mxGeometry width="50" height="50" relative="1" as="geometry">
                        <mxPoint x="1160.0900000000001" y="1440.9999999999995" as="sourcePoint"/>
                        <mxPoint x="1159.7199999999993" y="1520.9999999999995" as="targetPoint"/>
                        <Array as="points">
                            <mxPoint x="1159.72" y="1521"/>
                        </Array>
                    </mxGeometry>
                </mxCell>
                <mxCell id="129" value="&lt;span style=&quot;color: rgb(44, 45, 48); font-size: 15px; text-align: left;&quot;&gt;3. Блок опрежедения длины элемента и формирования гового массива&lt;/span&gt;" style="text;html=1;align=center;verticalAlign=middle;resizable=0;points=[];autosize=1;fontSize=14;fontFamily=Times New Roman;fontStyle=1;fillColor=#FFFFFF;" vertex="1" parent="1">
                    <mxGeometry x="915" y="1149" width="490" height="20" as="geometry"/>
                </mxCell>
                <mxCell id="130" value="&lt;font style=&quot;font-size: 14px;&quot;&gt;i &amp;lt; array.Length?&lt;/font&gt;" style="rhombus;whiteSpace=wrap;html=1;strokeWidth=2;" vertex="1" parent="1">
                    <mxGeometry x="1040" y="1361" width="240" height="80" as="geometry"/>
                </mxCell>
                <mxCell id="131" value="&lt;font style=&quot;font-size: 14px;&quot;&gt;Назначение переменных&lt;br&gt;string answer[count]&lt;br&gt;string temp[count]&lt;br&gt;int count = 0; int i = 0&lt;br&gt;&lt;/font&gt;" style="whiteSpace=wrap;html=1;strokeWidth=2;" vertex="1" parent="1">
                    <mxGeometry x="1040" y="1201" width="240" height="80" as="geometry"/>
                </mxCell>
                <mxCell id="132" value="" style="endArrow=classic;html=1;rounded=0;fontFamily=Times New Roman;exitX=0.5;exitY=1;exitDx=0;exitDy=0;" edge="1" parent="1">
                    <mxGeometry width="50" height="50" relative="1" as="geometry">
                        <mxPoint x="1160.0400000000009" y="1280.9999999999995" as="sourcePoint"/>
                        <mxPoint x="1159.67" y="1360.9999999999995" as="targetPoint"/>
                        <Array as="points">
                            <mxPoint x="1159.67" y="1361"/>
                        </Array>
                    </mxGeometry>
                </mxCell>
                <mxCell id="133" value="&lt;font style=&quot;font-size: 14px;&quot;&gt;count++&lt;br&gt;&lt;/font&gt;" style="whiteSpace=wrap;html=1;strokeWidth=2;" vertex="1" parent="1">
                    <mxGeometry x="1040" y="1840" width="240" height="80" as="geometry"/>
                </mxCell>
                <mxCell id="134" value="" style="endArrow=classic;html=1;rounded=0;fontFamily=Times New Roman;exitX=0.5;exitY=1;exitDx=0;exitDy=0;" edge="1" parent="1">
                    <mxGeometry width="50" height="50" relative="1" as="geometry">
                        <mxPoint x="1160.0900000000001" y="1600" as="sourcePoint"/>
                        <mxPoint x="1159.7199999999993" y="1680" as="targetPoint"/>
                        <Array as="points">
                            <mxPoint x="1159.72" y="1680"/>
                        </Array>
                    </mxGeometry>
                </mxCell>
                <mxCell id="135" value="" style="endArrow=classic;html=1;rounded=0;fontFamily=Times New Roman;exitX=0.5;exitY=1;exitDx=0;exitDy=0;" edge="1" parent="1">
                    <mxGeometry width="50" height="50" relative="1" as="geometry">
                        <mxPoint x="1160.0900000000001" y="1920" as="sourcePoint"/>
                        <mxPoint x="1159.7199999999993" y="2000" as="targetPoint"/>
                        <Array as="points">
                            <mxPoint x="1159.72" y="2000"/>
                        </Array>
                    </mxGeometry>
                </mxCell>
                <mxCell id="136" value="&lt;font style=&quot;font-size: 14px;&quot;&gt;length &amp;lt; 4?&lt;/font&gt;" style="rhombus;whiteSpace=wrap;html=1;strokeWidth=2;" vertex="1" parent="1">
                    <mxGeometry x="1040" y="1680" width="240" height="80" as="geometry"/>
                </mxCell>
                <mxCell id="137" value="" style="endArrow=classic;html=1;rounded=0;fontFamily=Times New Roman;exitX=0.5;exitY=1;exitDx=0;exitDy=0;" edge="1" parent="1">
                    <mxGeometry width="50" height="50" relative="1" as="geometry">
                        <mxPoint x="1160.0900000000001" y="1760" as="sourcePoint"/>
                        <mxPoint x="1159.7199999999993" y="1840" as="targetPoint"/>
                        <Array as="points">
                            <mxPoint x="1159.72" y="1840"/>
                        </Array>
                    </mxGeometry>
                </mxCell>
                <mxCell id="138" value="Yes" style="edgeLabel;html=1;align=center;verticalAlign=middle;resizable=0;points=[];fontSize=14;" vertex="1" connectable="0" parent="1">
                    <mxGeometry x="1280" y="2150.0018518518523" as="geometry">
                        <mxPoint x="-142" y="-381" as="offset"/>
                    </mxGeometry>
                </mxCell>
                <mxCell id="139" value="Yes" style="edgeLabel;html=1;align=center;verticalAlign=middle;resizable=0;points=[];fontSize=14;" vertex="1" connectable="0" parent="1">
                    <mxGeometry x="1280" y="1840.0018518518523" as="geometry">
                        <mxPoint x="-142" y="-381" as="offset"/>
                    </mxGeometry>
                </mxCell>
                <mxCell id="140" value="" style="endArrow=classic;html=1;rounded=0;fontFamily=Times New Roman;entryX=0;entryY=0.5;entryDx=0;entryDy=0;" edge="1" parent="1">
                    <mxGeometry width="50" height="50" relative="1" as="geometry">
                        <mxPoint x="1280" y="1400.44" as="sourcePoint"/>
                        <mxPoint x="1360" y="1400.44" as="targetPoint"/>
                        <Array as="points">
                            <mxPoint x="1320" y="1400.44"/>
                        </Array>
                    </mxGeometry>
                </mxCell>
                <mxCell id="141" value="&lt;span style=&quot;font-size: 14px;&quot;&gt;print(answer[ ])&lt;/span&gt;" style="shape=document;whiteSpace=wrap;html=1;boundedLbl=1;strokeWidth=2;" vertex="1" parent="1">
                    <mxGeometry x="1360" y="1361" width="240" height="85" as="geometry"/>
                </mxCell>
                <mxCell id="142" value="&lt;font style=&quot;font-size: 14px;&quot;&gt;string k = set[i]&lt;br&gt;int length = k.Length&lt;br&gt;&lt;/font&gt;" style="whiteSpace=wrap;html=1;strokeWidth=2;" vertex="1" parent="1">
                    <mxGeometry x="1040" y="1520" width="240" height="80" as="geometry"/>
                </mxCell>
                <mxCell id="143" value="&lt;span style=&quot;font-size: 14px;&quot;&gt;l &amp;lt; temp.Length - 1&lt;/span&gt;" style="rhombus;whiteSpace=wrap;html=1;strokeWidth=2;" vertex="1" parent="1">
                    <mxGeometry x="1040" y="2000" width="240" height="80" as="geometry"/>
                </mxCell>
                <mxCell id="144" value="Yes" style="edgeLabel;html=1;align=center;verticalAlign=middle;resizable=0;points=[];fontSize=14;" vertex="1" connectable="0" parent="1">
                    <mxGeometry x="1280" y="2320.0018518518523" as="geometry">
                        <mxPoint x="-142" y="-381" as="offset"/>
                    </mxGeometry>
                </mxCell>
                <mxCell id="145" value="&lt;font style=&quot;font-size: 14px;&quot;&gt;temp[l] = answer[l]&lt;br&gt;&lt;/font&gt;" style="whiteSpace=wrap;html=1;strokeWidth=2;" vertex="1" parent="1">
                    <mxGeometry x="1040" y="2160" width="240" height="80" as="geometry"/>
                </mxCell>
                <mxCell id="146" value="&lt;font style=&quot;font-size: 14px;&quot;&gt;i++&lt;br&gt;&lt;/font&gt;" style="whiteSpace=wrap;html=1;strokeWidth=2;" vertex="1" parent="1">
                    <mxGeometry x="1040" y="2320" width="240" height="80" as="geometry"/>
                </mxCell>
                <mxCell id="147" value="" style="endArrow=classic;html=1;rounded=0;fontFamily=Times New Roman;exitX=0.5;exitY=1;exitDx=0;exitDy=0;" edge="1" parent="1">
                    <mxGeometry width="50" height="50" relative="1" as="geometry">
                        <mxPoint x="1160.0900000000001" y="2240" as="sourcePoint"/>
                        <mxPoint x="1159.7199999999993" y="2320" as="targetPoint"/>
                        <Array as="points">
                            <mxPoint x="1159.72" y="2320"/>
                        </Array>
                    </mxGeometry>
                </mxCell>
                <mxCell id="148" value="" style="endArrow=classic;html=1;rounded=0;fontFamily=Times New Roman;exitX=0.5;exitY=1;exitDx=0;exitDy=0;" edge="1" parent="1">
                    <mxGeometry width="50" height="50" relative="1" as="geometry">
                        <mxPoint x="1160.0900000000001" y="2080" as="sourcePoint"/>
                        <mxPoint x="1159.7199999999993" y="2160" as="targetPoint"/>
                        <Array as="points">
                            <mxPoint x="1159.72" y="2160"/>
                        </Array>
                    </mxGeometry>
                </mxCell>
                <mxCell id="149" value="Yes" style="edgeLabel;html=1;align=center;verticalAlign=middle;resizable=0;points=[];fontSize=14;" vertex="1" connectable="0" parent="1">
                    <mxGeometry x="1280" y="2150.0018518518523" as="geometry">
                        <mxPoint x="-142" y="-381" as="offset"/>
                    </mxGeometry>
                </mxCell>
                <mxCell id="150" value="&lt;font style=&quot;font-size: 14px;&quot;&gt;temp[count - 1] = string&lt;br&gt;answer = temp&lt;br&gt;&lt;/font&gt;" style="whiteSpace=wrap;html=1;strokeWidth=2;" vertex="1" parent="1">
                    <mxGeometry x="1360" y="2000" width="240" height="80" as="geometry"/>
                </mxCell>
                <mxCell id="151" value="" style="edgeStyle=orthogonalEdgeStyle;rounded=0;orthogonalLoop=1;jettySize=auto;html=1;" edge="1" parent="1" target="120">
                    <mxGeometry relative="1" as="geometry">
                        <mxPoint x="478" y="1880" as="sourcePoint"/>
                    </mxGeometry>
                </mxCell>
                <mxCell id="152" value="" style="endArrow=classic;html=1;rounded=0;fontFamily=Times New Roman;entryX=0;entryY=0.5;entryDx=0;entryDy=0;" edge="1" parent="1">
                    <mxGeometry width="50" height="50" relative="1" as="geometry">
                        <mxPoint x="1280" y="2039.5" as="sourcePoint"/>
                        <mxPoint x="1360" y="2039.5" as="targetPoint"/>
                        <Array as="points">
                            <mxPoint x="1320" y="2039.5"/>
                        </Array>
                    </mxGeometry>
                </mxCell>
                <mxCell id="153" value="No" style="text;html=1;align=center;verticalAlign=middle;resizable=0;points=[];autosize=1;strokeColor=none;fillColor=none;fontSize=14;" vertex="1" parent="1">
                    <mxGeometry x="1280" y="2010" width="30" height="20" as="geometry"/>
                </mxCell>
                <mxCell id="154" value="" style="endArrow=classic;html=1;rounded=0;fontFamily=Times New Roman;entryX=0;entryY=0.5;entryDx=0;entryDy=0;exitX=0;exitY=0.5;exitDx=0;exitDy=0;" edge="1" parent="1">
                    <mxGeometry width="50" height="50" relative="1" as="geometry">
                        <mxPoint x="1040" y="2360" as="sourcePoint"/>
                        <mxPoint x="1040" y="2040" as="targetPoint"/>
                        <Array as="points">
                            <mxPoint x="960" y="2360"/>
                            <mxPoint x="960" y="2040"/>
                        </Array>
                    </mxGeometry>
                </mxCell>
                <mxCell id="155" value="" style="endArrow=classic;html=1;rounded=0;fontFamily=Times New Roman;entryX=0;entryY=0.5;entryDx=0;entryDy=0;" edge="1" parent="1" target="130">
                    <mxGeometry width="50" height="50" relative="1" as="geometry">
                        <mxPoint x="1480" y="2080" as="sourcePoint"/>
                        <mxPoint x="1040" y="1560" as="targetPoint"/>
                        <Array as="points">
                            <mxPoint x="1480" y="2480"/>
                            <mxPoint x="880" y="2480"/>
                            <mxPoint x="880" y="1401"/>
                        </Array>
                    </mxGeometry>
                </mxCell>
            </root>
        </mxGraphModel>
    </diagram>
</mxfile>